<svg xmlns="http://www.w3.org/2000/svg" xmlns:xlink="http://www.w3.org/1999/xlink" version="1.1" width="256" height="256" viewBox="0 0 256 256" xml:space="preserve">

<defs>
</defs>
<g style="stroke: none; stroke-width: 0; stroke-dasharray: none; stroke-linecap: butt; stroke-linejoin: miter; stroke-miterlimit: 10; fill: none; fill-rule: nonzero; opacity: 1;" transform="translate(1.4065934065934016 1.4065934065934016) scale(2.81 2.81)" >
	<path d="M 72.519 60.694 l 3.894 -31.255 v -1.948 c 0 -10.692 -8.668 -19.36 -19.36 -19.36 h 0 c -10.692 0 -19.36 8.668 -19.36 19.36 v 1.948 l 3.894 31.224 L 72.519 60.694 z" style="stroke: none; stroke-width: 1; stroke-dasharray: none; stroke-linecap: butt; stroke-linejoin: miter; stroke-miterlimit: 10; fill: rgb(190,143,125); fill-rule: nonzero; opacity: 1;" transform=" matrix(1 0 0 1 0 0) " stroke-linecap="round" />
	<path d="M 78.272 57.602 l -6.769 -1.14 c -2.637 5.304 -8.096 8.958 -14.422 8.958 s -11.784 -3.654 -14.422 -8.958 l -6.769 1.14 c -3.994 0.673 -6.896 3.879 -6.896 7.621 V 90 h 56.172 V 65.223 C 85.167 61.482 82.266 58.275 78.272 57.602 z" style="stroke: none; stroke-width: 1; stroke-dasharray: none; stroke-linecap: butt; stroke-linejoin: miter; stroke-miterlimit: 10; fill: rgb(243,182,88); fill-rule: nonzero; opacity: 1;" transform=" matrix(1 0 0 1 0 0) " stroke-linecap="round" />
	<path d="M 66.468 51.538 c 0.712 2.683 2.277 4.447 5.038 4.924 h -0.003 c -2.637 5.304 -8.096 8.958 -14.422 8.958 s -11.784 -3.654 -14.422 -8.958 c 2.761 -0.478 4.326 -3.265 5.038 -5.947 h 18.77" style="stroke: none; stroke-width: 1; stroke-dasharray: none; stroke-linecap: butt; stroke-linejoin: miter; stroke-miterlimit: 10; fill: rgb(244,212,203); fill-rule: nonzero; opacity: 1;" transform=" matrix(1 0 0 1 0 0) " stroke-linecap="round" />
	<polygon points="42.14,56.55 37.3,57.37 37.3,90 76.86,90 76.86,57.37 72.03,56.55 72.03,73.08 42.14,73.08 " style="stroke: none; stroke-width: 1; stroke-dasharray: none; stroke-linecap: butt; stroke-linejoin: miter; stroke-miterlimit: 10; fill: rgb(232,146,144); fill-rule: nonzero; opacity: 1;" transform="  matrix(1 0 0 1 0 0) "/>
	<path d="M 81.017 21.97 H 33.146 c -1.695 0 -3.069 -1.374 -3.069 -3.069 v 0 c 0 -1.695 1.374 -3.069 3.069 -3.069 h 47.871 c 1.695 0 3.069 1.374 3.069 3.069 v 0 C 84.086 20.595 82.712 21.97 81.017 21.97 z" style="stroke: none; stroke-width: 1; stroke-dasharray: none; stroke-linecap: butt; stroke-linejoin: miter; stroke-miterlimit: 10; fill: rgb(232,146,144); fill-rule: nonzero; opacity: 1;" transform=" matrix(1 0 0 1 0 0) " stroke-linecap="round" />
	<path d="M 64.396 1.572 l -4.091 -1.147 c -1.999 -0.56 -4.113 -0.566 -6.115 -0.017 l -4.362 1.197 c -4.968 1.363 -8.412 5.879 -8.412 11.031 v 3.196 h 31.33 v -3.246 C 72.746 7.457 69.333 2.956 64.396 1.572 z" style="stroke: none; stroke-width: 1; stroke-dasharray: none; stroke-linecap: butt; stroke-linejoin: miter; stroke-miterlimit: 10; fill: rgb(232,146,144); fill-rule: nonzero; opacity: 1;" transform=" matrix(1 0 0 1 0 0) " stroke-linecap="round" />
	<path d="M 71.181 28.245 v 9.748 c 0 8.267 -6.325 17.281 -14.128 17.281 h 0 c -7.803 0 -14.128 -9.014 -14.128 -17.281 v -9.748 c 8.132 -0.027 13.647 -1.119 18.535 -3.489 C 64.224 27.011 66.916 28.217 71.181 28.245 z" style="stroke: none; stroke-width: 1; stroke-dasharray: none; stroke-linecap: butt; stroke-linejoin: miter; stroke-miterlimit: 10; fill: rgb(255,221,212); fill-rule: nonzero; opacity: 1;" transform=" matrix(1 0 0 1 0 0) " stroke-linecap="round" />
	<path d="M 53.378 36.403 h -3.844 c -0.553 0 -1 -0.448 -1 -1 s 0.447 -1 1 -1 h 3.844 c 0.553 0 1 0.448 1 1 S 53.931 36.403 53.378 36.403 z" style="stroke: none; stroke-width: 1; stroke-dasharray: none; stroke-linecap: butt; stroke-linejoin: miter; stroke-miterlimit: 10; fill: rgb(190,143,125); fill-rule: nonzero; opacity: 1;" transform=" matrix(1 0 0 1 0 0) " stroke-linecap="round" />
	<path d="M 64.572 36.403 h -3.844 c -0.553 0 -1 -0.448 -1 -1 s 0.447 -1 1 -1 h 3.844 c 0.553 0 1 0.448 1 1 S 65.125 36.403 64.572 36.403 z" style="stroke: none; stroke-width: 1; stroke-dasharray: none; stroke-linecap: butt; stroke-linejoin: miter; stroke-miterlimit: 10; fill: rgb(190,143,125); fill-rule: nonzero; opacity: 1;" transform=" matrix(1 0 0 1 0 0) " stroke-linecap="round" />
	<path d="M 56.966 49.371 c -1.779 0 -3.529 -0.719 -5.201 -2.157 c -0.419 -0.359 -0.466 -0.991 -0.105 -1.41 c 0.36 -0.418 0.991 -0.464 1.41 -0.106 c 2.618 2.253 5.158 2.244 7.995 -0.022 c 0.434 -0.346 1.06 -0.275 1.406 0.156 c 0.345 0.431 0.274 1.061 -0.156 1.406 C 60.535 48.659 58.736 49.371 56.966 49.371 z" style="stroke: none; stroke-width: 1; stroke-dasharray: none; stroke-linecap: butt; stroke-linejoin: miter; stroke-miterlimit: 10; fill: rgb(190,143,125); fill-rule: nonzero; opacity: 1;" transform=" matrix(1 0 0 1 0 0) " stroke-linecap="round" />
	<path d="M 21.363 70.886 c -0.552 0 -1 -0.447 -1 -1 V 44.474 c 0 -0.552 0.448 -1 1 -1 s 1 0.448 1 1 v 25.412 C 22.363 70.438 21.915 70.886 21.363 70.886 z" style="stroke: none; stroke-width: 1; stroke-dasharray: none; stroke-linecap: butt; stroke-linejoin: miter; stroke-miterlimit: 10; fill: rgb(197,233,125); fill-rule: nonzero; opacity: 1;" transform=" matrix(1 0 0 1 0 0) " stroke-linecap="round" />
	<path d="M 21.362 66.156 c -0.147 0 -0.297 -0.032 -0.439 -0.102 c -0.496 -0.243 -0.701 -0.843 -0.458 -1.339 c 1.225 -2.499 3.392 -4.497 6.441 -5.94 c 0.499 -0.235 1.096 -0.023 1.332 0.477 c 0.236 0.499 0.023 1.096 -0.476 1.332 c -2.63 1.244 -4.48 2.93 -5.501 5.013 C 22.087 65.95 21.732 66.156 21.362 66.156 z" style="stroke: none; stroke-width: 1; stroke-dasharray: none; stroke-linecap: butt; stroke-linejoin: miter; stroke-miterlimit: 10; fill: rgb(197,233,125); fill-rule: nonzero; opacity: 1;" transform=" matrix(1 0 0 1 0 0) " stroke-linecap="round" />
	<path d="M 21.364 66.158 c -0.37 0 -0.726 -0.206 -0.899 -0.561 c -1.02 -2.082 -2.871 -3.768 -5.5 -5.012 c -0.499 -0.236 -0.712 -0.833 -0.476 -1.332 c 0.236 -0.5 0.833 -0.713 1.332 -0.477 c 3.05 1.443 5.217 3.441 6.441 5.941 c 0.243 0.495 0.038 1.095 -0.458 1.338 C 21.661 66.126 21.511 66.158 21.364 66.158 z" style="stroke: none; stroke-width: 1; stroke-dasharray: none; stroke-linecap: butt; stroke-linejoin: miter; stroke-miterlimit: 10; fill: rgb(197,233,125); fill-rule: nonzero; opacity: 1;" transform=" matrix(1 0 0 1 0 0) " stroke-linecap="round" />
	<path d="M 9.647 62.246 c -2.056 -1.85 -3.601 -4.212 -4.814 -6.909 c 2.707 -1.189 5.437 -1.907 8.203 -1.903 c 2.824 0.005 4.877 2.787 4.017 5.478 c -0.101 0.317 -0.226 0.644 -0.374 0.981 c -0.116 0.349 -0.242 0.675 -0.38 0.979 C 15.135 63.445 11.747 64.135 9.647 62.246 z" style="stroke: none; stroke-width: 1; stroke-dasharray: none; stroke-linecap: butt; stroke-linejoin: miter; stroke-miterlimit: 10; fill: rgb(197,233,125); fill-rule: nonzero; opacity: 1;" transform=" matrix(1 0 0 1 0 0) " stroke-linecap="round" />
	<path d="M 33.975 62.442 c 2.056 -1.85 3.601 -4.212 4.814 -6.909 c -2.707 -1.189 -5.437 -1.907 -8.203 -1.903 c -2.824 0.005 -4.877 2.787 -4.017 5.478 c 0.101 0.317 0.226 0.644 0.374 0.981 c 0.116 0.349 0.242 0.675 0.38 0.979 C 28.487 63.641 31.876 64.331 33.975 62.442 z" style="stroke: none; stroke-width: 1; stroke-dasharray: none; stroke-linecap: butt; stroke-linejoin: miter; stroke-miterlimit: 10; fill: rgb(197,233,125); fill-rule: nonzero; opacity: 1;" transform=" matrix(1 0 0 1 0 0) " stroke-linecap="round" />
	<path d="M 12.059 40.425 c 1.132 0.427 2.306 0.647 3.525 0.594 c -1.018 0.674 -1.839 1.543 -2.504 2.554 c -2.793 4.248 3.451 8.785 6.628 4.815 c 0.756 -0.945 1.329 -1.995 1.655 -3.171 c 0.326 1.175 0.898 2.224 1.653 3.169 c 3.176 3.971 9.423 -0.568 6.628 -4.816 c -0.665 -1.01 -1.486 -1.878 -2.503 -2.551 c 1.219 0.053 2.392 -0.167 3.524 -0.593 c 4.757 -1.793 2.371 -9.137 -2.532 -7.792 c -1.166 0.32 -2.245 0.832 -3.2 1.591 c 0.428 -1.144 0.581 -2.33 0.525 -3.54 c -0.238 -5.079 -7.955 -5.079 -8.193 0 c -0.057 1.21 0.097 2.396 0.525 3.54 c -0.955 -0.759 -2.034 -1.272 -3.2 -1.592 C 9.688 31.288 7.302 38.631 12.059 40.425 z" style="stroke: none; stroke-width: 1; stroke-dasharray: none; stroke-linecap: butt; stroke-linejoin: miter; stroke-miterlimit: 10; fill: rgb(251,227,114); fill-rule: nonzero; opacity: 1;" transform=" matrix(1 0 0 1 0 0) " stroke-linecap="round" />
	<circle cx="21.358" cy="39.147999999999996" r="3.218" style="stroke: none; stroke-width: 1; stroke-dasharray: none; stroke-linecap: butt; stroke-linejoin: miter; stroke-miterlimit: 10; fill: rgb(244,172,3); fill-rule: nonzero; opacity: 1;" transform="  matrix(1 0 0 1 0 0) "/>
	<polygon points="29.38,89.99 13.35,89.99 10.14,69.89 32.58,69.89 " style="stroke: none; stroke-width: 1; stroke-dasharray: none; stroke-linecap: butt; stroke-linejoin: miter; stroke-miterlimit: 10; fill: rgb(168,127,111); fill-rule: nonzero; opacity: 1;" transform="  matrix(1 0 0 1 0 0) "/>
	<polygon points="34.17,75.45 35.05,69.89 7.67,69.89 8.56,75.45 " style="stroke: none; stroke-width: 1; stroke-dasharray: none; stroke-linecap: butt; stroke-linejoin: miter; stroke-miterlimit: 10; fill: rgb(190,143,125); fill-rule: nonzero; opacity: 1;" transform="  matrix(1 0 0 1 0 0) "/>
</g>
</svg>