<svg xmlns="http://www.w3.org/2000/svg" xmlns:xlink="http://www.w3.org/1999/xlink" version="1.1" width="256" height="256" viewBox="0 0 256 256" xml:space="preserve">

<defs>
</defs>
<g style="stroke: none; stroke-width: 0; stroke-dasharray: none; stroke-linecap: butt; stroke-linejoin: miter; stroke-miterlimit: 10; fill: none; fill-rule: nonzero; opacity: 1;" transform="translate(1.4065934065934016 1.4065934065934016) scale(2.81 2.81)" >
	<polygon points="45.3,33.61 31.93,50.73 31.93,35.28 30.93,35.28 26.53,35.28 25.52,35.28 25.52,50.73 13.16,33.61 10.76,35.89 25.52,57.46 25.52,87.88 26.53,87.88 30.93,87.88 31.93,87.88 31.93,57.46 47.71,35.89 " style="stroke: none; stroke-width: 1; stroke-dasharray: none; stroke-linecap: butt; stroke-linejoin: miter; stroke-miterlimit: 10; fill: rgb(190,143,125); fill-rule: nonzero; opacity: 1;" transform="  matrix(1 0 0 1 0 0) "/>
	<path d="M 31.929 88.879 h -6.404 c -0.552 0 -1 -0.447 -1 -1 V 57.77 L 9.935 36.458 c -0.277 -0.405 -0.219 -0.953 0.137 -1.291 l 2.404 -2.279 c 0.209 -0.198 0.489 -0.295 0.781 -0.27 c 0.287 0.027 0.549 0.176 0.717 0.41 l 10.55 14.612 V 35.285 c 0 -0.552 0.448 -1 1 -1 h 6.404 c 0.552 0 1 0.448 1 1 V 47.83 l 11.585 -14.832 c 0.173 -0.222 0.433 -0.36 0.714 -0.381 c 0.277 -0.025 0.558 0.078 0.762 0.271 l 2.404 2.279 c 0.366 0.346 0.417 0.91 0.119 1.316 L 32.929 57.787 v 30.092 C 32.929 88.432 32.481 88.879 31.929 88.879 z M 26.525 86.879 h 4.404 V 57.46 c 0 -0.212 0.067 -0.419 0.193 -0.591 L 46.38 36.013 l -0.966 -0.917 L 32.717 51.35 c -0.264 0.338 -0.711 0.469 -1.114 0.33 c -0.403 -0.139 -0.674 -0.519 -0.674 -0.945 l -0.003 -14.45 h -4.401 v 14.45 c 0 0.434 -0.28 0.818 -0.692 0.951 c -0.414 0.136 -0.864 -0.015 -1.118 -0.366 L 13.022 35.126 l -0.955 0.906 L 26.35 56.896 c 0.114 0.166 0.175 0.363 0.175 0.564 V 86.879 z" style="stroke: none; stroke-width: 1; stroke-dasharray: none; stroke-linecap: butt; stroke-linejoin: miter; stroke-miterlimit: 10; fill: rgb(0,0,0); fill-rule: nonzero; opacity: 1;" transform=" matrix(1 0 0 1 0 0) " stroke-linecap="round" />
	<path d="M 46.731 19.574 C 46.705 9.931 38.882 2.121 29.233 2.121 s -17.472 7.81 -17.498 17.453 C 5.761 19.857 1 24.776 1 30.821 c 0 6.227 5.048 11.274 11.274 11.274 h 33.918 c 6.227 0 11.274 -5.048 11.274 -11.274 C 57.467 24.776 52.706 19.857 46.731 19.574 z" style="stroke: none; stroke-width: 1; stroke-dasharray: none; stroke-linecap: butt; stroke-linejoin: miter; stroke-miterlimit: 10; fill: rgb(197,233,125); fill-rule: nonzero; opacity: 1;" transform=" matrix(1 0 0 1 0 0) " stroke-linecap="round" />
	<path d="M 46.192 43.095 H 12.274 C 5.506 43.095 0 37.589 0 30.821 c 0 -6.244 4.656 -11.42 10.76 -12.167 c 0.506 -9.749 8.608 -17.532 18.473 -17.532 S 47.2 8.904 47.706 18.653 c 6.105 0.748 10.761 5.924 10.761 12.167 C 58.467 37.589 52.961 43.095 46.192 43.095 z M 29.233 3.121 c -9.072 0 -16.473 7.382 -16.498 16.456 c -0.001 0.533 -0.42 0.971 -0.953 0.996 C 6.297 20.833 2 25.334 2 30.821 c 0 5.666 4.609 10.274 10.274 10.274 h 33.918 c 5.665 0 10.274 -4.609 10.274 -10.274 c 0 -5.487 -4.297 -9.988 -9.782 -10.248 c -0.532 -0.025 -0.952 -0.463 -0.953 -0.996 C 45.707 10.503 38.306 3.121 29.233 3.121 z" style="stroke: none; stroke-width: 1; stroke-dasharray: none; stroke-linecap: butt; stroke-linejoin: miter; stroke-miterlimit: 10; fill: rgb(0,0,0); fill-rule: nonzero; opacity: 1;" transform=" matrix(1 0 0 1 0 0) " stroke-linecap="round" />
	<path d="M 78.364 63.235 l 3.275 -26.282 v -1.638 c 0 -8.991 -7.289 -16.28 -16.28 -16.28 h 0 c -8.991 0 -16.28 7.289 -16.28 16.28 v 1.638 l 3.275 26.256 L 78.364 63.235 z" style="stroke: none; stroke-width: 1; stroke-dasharray: none; stroke-linecap: butt; stroke-linejoin: miter; stroke-miterlimit: 10; fill: rgb(190,143,125); fill-rule: nonzero; opacity: 1;" transform=" matrix(1 0 0 1 0 0) " stroke-linecap="round" />
	<path d="M 78.364 64.235 L 78.364 64.235 l -26.012 -0.026 c -0.504 -0.001 -0.929 -0.376 -0.991 -0.876 l -3.275 -26.256 c -0.005 -0.042 -0.008 -0.083 -0.008 -0.124 v -1.638 c 0 -9.528 7.752 -17.28 17.28 -17.28 s 17.28 7.752 17.28 17.28 v 1.638 c 0 0.042 -0.003 0.083 -0.008 0.124 l -3.274 26.283 C 79.294 63.859 78.868 64.235 78.364 64.235 z M 53.236 62.21 l 24.245 0.024 l 3.157 -25.344 v -1.576 c 0 -8.426 -6.854 -15.28 -15.28 -15.28 s -15.28 6.854 -15.28 15.28 v 1.576 L 53.236 62.21 z" style="stroke: none; stroke-width: 1; stroke-dasharray: none; stroke-linecap: butt; stroke-linejoin: miter; stroke-miterlimit: 10; fill: rgb(0,0,0); fill-rule: nonzero; opacity: 1;" transform=" matrix(1 0 0 1 0 0) " stroke-linecap="round" />
	<path d="M 83.201 60.635 l -5.692 -0.959 c -2.218 4.46 -6.808 7.533 -12.127 7.533 c -5.319 0 -9.91 -3.072 -12.127 -7.533 l -5.692 0.959 c -3.359 0.566 -5.799 3.262 -5.799 6.408 v 20.835 H 89 V 67.044 C 89 63.898 86.56 61.201 83.201 60.635 z" style="stroke: none; stroke-width: 1; stroke-dasharray: none; stroke-linecap: butt; stroke-linejoin: miter; stroke-miterlimit: 10; fill: rgb(243,182,88); fill-rule: nonzero; opacity: 1;" transform=" matrix(1 0 0 1 0 0) " stroke-linecap="round" />
	<path d="M 89 88.879 H 41.765 c -0.552 0 -1 -0.447 -1 -1 V 67.044 c 0 -3.638 2.79 -6.747 6.633 -7.395 l 5.691 -0.959 c 0.438 -0.068 0.866 0.147 1.062 0.541 c 2.14 4.304 6.444 6.978 11.232 6.978 s 9.092 -2.674 11.231 -6.978 c 0.195 -0.394 0.622 -0.609 1.062 -0.541 l 5.691 0.959 C 87.211 60.297 90 63.406 90 67.044 v 20.835 C 90 88.432 89.553 88.879 89 88.879 z M 42.765 86.879 H 88 V 67.044 c 0 -2.657 -2.088 -4.938 -4.965 -5.422 l 0 0 l -4.979 -0.839 c -2.58 4.6 -7.37 7.426 -12.673 7.426 s -10.094 -2.826 -12.674 -7.426 l -4.979 0.839 c -2.877 0.484 -4.965 2.765 -4.965 5.422 V 86.879 z" style="stroke: none; stroke-width: 1; stroke-dasharray: none; stroke-linecap: butt; stroke-linejoin: miter; stroke-miterlimit: 10; fill: rgb(0,0,0); fill-rule: nonzero; opacity: 1;" transform=" matrix(1 0 0 1 0 0) " stroke-linecap="round" />
	<path d="M 73.276 55.536 c 0.599 2.256 1.915 3.739 4.237 4.141 H 77.51 c -2.218 4.46 -6.808 7.533 -12.127 7.533 c -5.319 0 -9.91 -3.072 -12.127 -7.533 c 2.322 -0.402 3.638 -1.885 4.237 -4.141 H 73.276" style="stroke: none; stroke-width: 1; stroke-dasharray: none; stroke-linecap: butt; stroke-linejoin: miter; stroke-miterlimit: 10; fill: rgb(244,212,203); fill-rule: nonzero; opacity: 1;" transform=" matrix(1 0 0 1 0 0) " stroke-linecap="round" />
	<path d="M 65.383 68.209 c -5.553 0 -10.543 -3.099 -13.023 -8.087 c -0.141 -0.283 -0.14 -0.615 0.004 -0.897 c 0.143 -0.281 0.41 -0.479 0.722 -0.533 c 1.813 -0.313 2.906 -1.397 3.44 -3.413 c 0.116 -0.438 0.514 -0.743 0.967 -0.743 h 15.783 c 0.453 0 0.851 0.306 0.967 0.743 c 0.534 2.016 1.628 3.1 3.44 3.413 c 0.512 0.088 0.871 0.554 0.826 1.071 c -0.013 0.155 -0.062 0.301 -0.138 0.427 C 75.88 65.139 70.91 68.209 65.383 68.209 z M 54.747 60.302 c 2.285 3.672 6.258 5.907 10.636 5.907 s 8.351 -2.235 10.635 -5.908 c -1.649 -0.639 -2.814 -1.899 -3.479 -3.766 H 58.229 C 57.564 58.402 56.397 59.664 54.747 60.302 z" style="stroke: none; stroke-width: 1; stroke-dasharray: none; stroke-linecap: butt; stroke-linejoin: miter; stroke-miterlimit: 10; fill: rgb(0,0,0); fill-rule: nonzero; opacity: 1;" transform=" matrix(1 0 0 1 0 0) " stroke-linecap="round" />
	<polygon points="52.82,59.75 48.75,60.44 48.75,87.88 82.02,87.88 82.02,60.44 77.95,59.75 77.95,73.65 52.82,73.65 " style="stroke: none; stroke-width: 1; stroke-dasharray: none; stroke-linecap: butt; stroke-linejoin: miter; stroke-miterlimit: 10; fill: rgb(232,146,144); fill-rule: nonzero; opacity: 1;" transform="  matrix(1 0 0 1 0 0) "/>
	<path d="M 82.016 88.879 H 48.749 c -0.553 0 -1 -0.447 -1 -1 V 60.436 c 0 -0.488 0.353 -0.905 0.834 -0.986 l 4.067 -0.685 c 0.291 -0.046 0.587 0.033 0.812 0.223 c 0.225 0.19 0.354 0.47 0.354 0.764 v 12.898 h 23.133 V 59.751 c 0 -0.294 0.13 -0.573 0.354 -0.764 c 0.225 -0.189 0.521 -0.269 0.812 -0.223 l 4.066 0.685 c 0.481 0.081 0.834 0.498 0.834 0.986 v 27.443 C 83.016 88.432 82.568 88.879 82.016 88.879 z M 49.749 86.879 h 31.267 V 61.281 l -2.066 -0.348 v 12.716 c 0 0.553 -0.447 1 -1 1 H 52.816 c -0.553 0 -1 -0.447 -1 -1 V 60.934 l -2.067 0.348 V 86.879 z" style="stroke: none; stroke-width: 1; stroke-dasharray: none; stroke-linecap: butt; stroke-linejoin: miter; stroke-miterlimit: 10; fill: rgb(0,0,0); fill-rule: nonzero; opacity: 1;" transform=" matrix(1 0 0 1 0 0) " stroke-linecap="round" />
	<path d="M 85.51 30.671 H 45.255 c -1.425 0 -2.581 -1.155 -2.581 -2.581 v 0 c 0 -1.425 1.155 -2.581 2.581 -2.581 H 85.51 c 1.425 0 2.581 1.155 2.581 2.581 v 0 C 88.091 29.516 86.935 30.671 85.51 30.671 z" style="stroke: none; stroke-width: 1; stroke-dasharray: none; stroke-linecap: butt; stroke-linejoin: miter; stroke-miterlimit: 10; fill: rgb(232,146,144); fill-rule: nonzero; opacity: 1;" transform=" matrix(1 0 0 1 0 0) " stroke-linecap="round" />
	<path d="M 85.51 31.671 H 45.255 c -1.974 0 -3.581 -1.606 -3.581 -3.581 c 0 -1.975 1.606 -3.581 3.581 -3.581 H 85.51 c 1.975 0 3.581 1.606 3.581 3.581 C 89.091 30.065 87.484 31.671 85.51 31.671 z M 45.255 26.51 c -0.872 0 -1.581 0.709 -1.581 1.581 s 0.709 1.581 1.581 1.581 H 85.51 c 0.872 0 1.581 -0.709 1.581 -1.581 s -0.709 -1.581 -1.581 -1.581 H 45.255 z" style="stroke: none; stroke-width: 1; stroke-dasharray: none; stroke-linecap: butt; stroke-linejoin: miter; stroke-miterlimit: 10; fill: rgb(0,0,0); fill-rule: nonzero; opacity: 1;" transform=" matrix(1 0 0 1 0 0) " stroke-linecap="round" />
	<path d="M 71.533 13.519 l -3.44 -0.965 c -1.681 -0.471 -3.459 -0.476 -5.142 -0.014 l -3.668 1.007 c -4.178 1.146 -7.073 4.944 -7.073 9.276 v 2.687 h 26.345 v -2.73 C 78.555 18.468 75.685 14.683 71.533 13.519 z" style="stroke: none; stroke-width: 1; stroke-dasharray: none; stroke-linecap: butt; stroke-linejoin: miter; stroke-miterlimit: 10; fill: rgb(232,146,144); fill-rule: nonzero; opacity: 1;" transform=" matrix(1 0 0 1 0 0) " stroke-linecap="round" />
	<path d="M 78.555 26.51 H 52.21 c -0.553 0 -1 -0.448 -1 -1 v -2.688 c 0 -4.768 3.211 -8.979 7.809 -10.24 l 3.668 -1.006 c 1.858 -0.511 3.821 -0.505 5.676 0.016 l 3.44 0.964 l 0 0 c 4.564 1.279 7.752 5.484 7.752 10.225 v 2.729 C 79.555 26.062 79.107 26.51 78.555 26.51 z M 53.21 24.51 h 24.345 V 22.78 c 0 -3.848 -2.587 -7.26 -6.291 -8.299 l -3.44 -0.964 c -1.507 -0.422 -3.101 -0.425 -4.607 -0.013 l -3.668 1.006 c -3.731 1.024 -6.338 4.442 -6.338 8.312 V 24.51 z" style="stroke: none; stroke-width: 1; stroke-dasharray: none; stroke-linecap: butt; stroke-linejoin: miter; stroke-miterlimit: 10; fill: rgb(0,0,0); fill-rule: nonzero; opacity: 1;" transform=" matrix(1 0 0 1 0 0) " stroke-linecap="round" />
	<path d="M 77.239 35.948 v 8.197 c 0 6.952 -5.319 14.531 -11.88 14.531 h 0 c -6.561 0 -11.88 -7.58 -11.88 -14.531 v -8.197 c 6.839 -0.023 11.476 -0.941 15.586 -2.934 C 71.389 34.911 73.652 35.925 77.239 35.948 z" style="stroke: none; stroke-width: 1; stroke-dasharray: none; stroke-linecap: butt; stroke-linejoin: miter; stroke-miterlimit: 10; fill: rgb(255,221,212); fill-rule: nonzero; opacity: 1;" transform=" matrix(1 0 0 1 0 0) " stroke-linecap="round" />
	<path d="M 65.358 59.677 c -7.372 0 -12.88 -8.2 -12.88 -15.532 v -8.197 c 0 -0.551 0.445 -0.998 0.997 -1 c 6.568 -0.022 11.101 -0.87 15.152 -2.833 c 0.35 -0.17 0.768 -0.121 1.068 0.125 c 1.973 1.609 4.012 2.686 7.55 2.708 c 0.55 0.003 0.993 0.45 0.993 1 v 8.197 C 78.239 51.477 72.73 59.677 65.358 59.677 z M 54.479 36.938 v 7.207 c 0 6.257 4.753 13.532 10.88 13.532 c 6.128 0 10.881 -7.274 10.881 -13.532 v -7.229 c -2.822 -0.167 -5.029 -0.996 -7.309 -2.734 C 64.954 35.998 60.547 36.838 54.479 36.938 z" style="stroke: none; stroke-width: 1; stroke-dasharray: none; stroke-linecap: butt; stroke-linejoin: miter; stroke-miterlimit: 10; fill: rgb(0,0,0); fill-rule: nonzero; opacity: 1;" transform=" matrix(1 0 0 1 0 0) " stroke-linecap="round" />
	<path d="M 62.268 42.968 h -3.232 c -0.553 0 -1 -0.448 -1 -1 s 0.447 -1 1 -1 h 3.232 c 0.553 0 1 0.448 1 1 S 62.82 42.968 62.268 42.968 z" style="stroke: none; stroke-width: 1; stroke-dasharray: none; stroke-linecap: butt; stroke-linejoin: miter; stroke-miterlimit: 10; fill: rgb(0,0,0); fill-rule: nonzero; opacity: 1;" transform=" matrix(1 0 0 1 0 0) " stroke-linecap="round" />
	<path d="M 71.682 42.968 h -3.232 c -0.553 0 -1 -0.448 -1 -1 s 0.447 -1 1 -1 h 3.232 c 0.553 0 1 0.448 1 1 S 72.234 42.968 71.682 42.968 z" style="stroke: none; stroke-width: 1; stroke-dasharray: none; stroke-linecap: butt; stroke-linejoin: miter; stroke-miterlimit: 10; fill: rgb(0,0,0); fill-rule: nonzero; opacity: 1;" transform=" matrix(1 0 0 1 0 0) " stroke-linecap="round" />
	<path d="M 65.285 53.877 c -1.531 0 -3.038 -0.619 -4.478 -1.856 c -0.418 -0.359 -0.466 -0.991 -0.105 -1.41 c 0.36 -0.418 0.991 -0.466 1.41 -0.105 c 2.133 1.833 4.204 1.829 6.521 -0.023 c 0.431 -0.346 1.062 -0.273 1.405 0.157 c 0.345 0.431 0.274 1.061 -0.157 1.405 C 68.353 53.266 66.807 53.877 65.285 53.877 z" style="stroke: none; stroke-width: 1; stroke-dasharray: none; stroke-linecap: butt; stroke-linejoin: miter; stroke-miterlimit: 10; fill: rgb(0,0,0); fill-rule: nonzero; opacity: 1;" transform=" matrix(1 0 0 1 0 0) " stroke-linecap="round" />
	<circle cx="13.757000000000001" cy="29.877" r="3.947" style="stroke: none; stroke-width: 1; stroke-dasharray: none; stroke-linecap: butt; stroke-linejoin: miter; stroke-miterlimit: 10; fill: rgb(232,146,144); fill-rule: nonzero; opacity: 1;" transform="  matrix(1 0 0 1 0 0) "/>
	<path d="M 13.759 34.819 c -2.728 0 -4.947 -2.219 -4.947 -4.947 s 2.219 -4.947 4.947 -4.947 s 4.947 2.219 4.947 4.947 S 16.487 34.819 13.759 34.819 z M 13.759 26.926 c -1.625 0 -2.947 1.322 -2.947 2.947 s 1.322 2.947 2.947 2.947 s 2.947 -1.322 2.947 -2.947 S 15.384 26.926 13.759 26.926 z" style="stroke: none; stroke-width: 1; stroke-dasharray: none; stroke-linecap: butt; stroke-linejoin: miter; stroke-miterlimit: 10; fill: rgb(0,0,0); fill-rule: nonzero; opacity: 1;" transform=" matrix(1 0 0 1 0 0) " stroke-linecap="round" />
	<circle cx="29.897" cy="14.716999999999999" r="3.947" style="stroke: none; stroke-width: 1; stroke-dasharray: none; stroke-linecap: butt; stroke-linejoin: miter; stroke-miterlimit: 10; fill: rgb(232,146,144); fill-rule: nonzero; opacity: 1;" transform="  matrix(1 0 0 1 0 0) "/>
	<path d="M 29.896 19.662 c -2.728 0 -4.947 -2.219 -4.947 -4.947 s 2.219 -4.946 4.947 -4.946 s 4.946 2.219 4.946 4.946 S 32.624 19.662 29.896 19.662 z M 29.896 11.769 c -1.625 0 -2.947 1.322 -2.947 2.946 c 0 1.625 1.322 2.947 2.947 2.947 c 1.625 0 2.946 -1.322 2.946 -2.947 C 32.843 13.09 31.521 11.769 29.896 11.769 z" style="stroke: none; stroke-width: 1; stroke-dasharray: none; stroke-linecap: butt; stroke-linejoin: miter; stroke-miterlimit: 10; fill: rgb(0,0,0); fill-rule: nonzero; opacity: 1;" transform=" matrix(1 0 0 1 0 0) " stroke-linecap="round" />
	<circle cx="33.997" cy="32.907000000000004" r="3.947" style="stroke: none; stroke-width: 1; stroke-dasharray: none; stroke-linecap: butt; stroke-linejoin: miter; stroke-miterlimit: 10; fill: rgb(232,146,144); fill-rule: nonzero; opacity: 1;" transform="  matrix(1 0 0 1 0 0) "/>
	<path d="M 33.997 37.857 c -2.728 0 -4.947 -2.219 -4.947 -4.947 s 2.219 -4.947 4.947 -4.947 s 4.946 2.219 4.946 4.947 S 36.725 37.857 33.997 37.857 z M 33.997 29.964 c -1.625 0 -2.947 1.322 -2.947 2.947 s 1.322 2.947 2.947 2.947 c 1.625 0 2.946 -1.322 2.946 -2.947 S 35.622 29.964 33.997 29.964 z" style="stroke: none; stroke-width: 1; stroke-dasharray: none; stroke-linecap: butt; stroke-linejoin: miter; stroke-miterlimit: 10; fill: rgb(0,0,0); fill-rule: nonzero; opacity: 1;" transform=" matrix(1 0 0 1 0 0) " stroke-linecap="round" />
</g>
</svg>